<?xml version="1.0" standalone="no"?>
<!DOCTYPE svg PUBLIC "-//W3C//DTD SVG 20010904//EN"
 "http://www.w3.org/TR/2001/REC-SVG-20010904/DTD/svg10.dtd">
<svg version="1.0" xmlns="http://www.w3.org/2000/svg"
 width="1024.000000pt" height="1024.000000pt" viewBox="0 0 1024.000000 1024.000000"
 preserveAspectRatio="xMidYMid meet">
<metadata>
Created by potrace 1.14, written by Peter Selinger 2001-2017
</metadata>
<g transform="translate(0.000000,1024.000000) scale(0.100000,-0.100000)"
fill="#000000" stroke="none">
<path d="M0 5120 l0 -5120 5120 0 5120 0 0 5120 0 5120 -5120 0 -5120 0 0
-5120z m4890 3938 c0 -7 27 -69 59 -138 33 -69 63 -137 66 -152 7 -27 10 -28
74 -29 36 0 115 -8 175 -17 l109 -17 -44 -37 c-80 -67 -171 -158 -158 -158 7
0 20 7 30 16 19 17 39 11 39 -12 0 -8 7 -14 15 -14 7 0 18 -7 22 -14 8 -15 40
-20 198 -31 136 -9 279 -28 300 -38 19 -10 19 -10 0 -17 -21 -8 18 -7 385 10
124 6 369 17 545 25 444 20 1124 53 1345 65 102 5 208 10 235 10 l50 0 18
-122 c10 -68 24 -181 32 -253 8 -71 17 -143 20 -160 l4 -30 -30 35 c-51 59
-78 127 -85 215 -3 44 -13 107 -21 140 -8 33 -16 65 -17 70 -1 6 -8 20 -14 33
-12 21 -18 22 -137 22 -71 0 -126 -4 -130 -10 -3 -5 18 -40 48 -78 77 -96 161
-222 153 -229 -3 -3 -6 -1 -6 6 0 7 -4 10 -10 6 -5 -3 -7 -12 -4 -20 4 -10 0
-12 -15 -8 -12 3 -21 1 -21 -6 0 -6 -7 -11 -16 -11 -8 0 -12 5 -9 10 4 7 -2 9
-19 4 -16 -4 -26 -2 -26 5 0 6 -7 11 -16 11 -8 0 -12 -4 -9 -10 3 -5 2 -10 -3
-10 -4 0 -27 21 -49 48 -23 26 -51 58 -63 72 -13 14 -52 60 -88 103 -35 43
-67 75 -70 72 -3 -3 3 -12 14 -20 18 -14 18 -14 -3 -9 -12 4 -24 13 -27 21 -4
10 -13 12 -27 8 -15 -5 -19 -4 -14 5 5 8 0 7 -14 -2 l-21 -13 22 -7 c19 -5 16
-6 -12 -7 -19 -1 -46 -4 -59 -8 -15 -4 -22 -2 -18 4 7 11 -29 11 -40 -1 -5 -4
-3 -7 2 -5 6 1 21 -2 35 -8 14 -6 32 -13 40 -16 8 -4 -3 -4 -25 -2 -29 4 -34
3 -20 -4 19 -8 19 -9 -5 -14 -22 -5 -22 -5 5 -5 63 0 80 -5 37 -11 -43 -6 -43
-6 -25 -26 10 -11 47 -63 82 -115 l64 -95 -39 -7 c-22 -4 -60 -7 -86 -7 -47
-1 -47 -1 -115 80 -37 45 -79 95 -93 111 l-25 29 -24 -20 c-13 -12 -32 -21
-43 -21 -10 0 -18 -4 -18 -9 0 -5 -13 -9 -30 -9 -16 1 -36 -4 -43 -10 -8 -7
-17 -8 -22 -4 -18 17 29 -57 65 -103 22 -27 40 -53 40 -56 0 -3 -21 -6 -47 -7
-27 -1 -137 -7 -245 -12 l-198 -11 -61 65 c-34 36 -65 64 -70 61 -4 -3 -13 5
-19 17 -11 22 -10 22 4 4 9 -11 16 -15 16 -9 0 6 -6 15 -12 21 -16 12 -366 13
-374 0 -3 -4 0 -8 6 -8 6 0 8 -5 4 -12 -4 -7 -3 -8 5 -4 6 4 9 10 7 14 -2 4
68 8 156 9 88 1 158 0 156 -2 -2 -2 -71 -9 -153 -15 -83 -7 -151 -14 -153 -15
-2 -2 17 -34 42 -72 l46 -68 -107 -6 c-93 -6 -294 -11 -329 -10 -6 1 -44 40
-84 89 -40 48 -77 86 -82 84 -5 -1 -7 2 -4 6 3 5 -4 18 -17 28 -21 19 -21 19
-7 0 10 -14 11 -17 2 -12 -7 4 -81 8 -165 9 -140 0 -145 1 -57 7 l95 6 -103 2
-103 2 27 -35 c14 -19 36 -36 48 -36 17 -1 18 -2 3 -6 -15 -4 -9 -17 37 -83
l54 -78 -87 -6 c-47 -3 -154 -8 -237 -12 l-152 -6 -76 93 c-43 52 -97 117
-122 146 -24 28 -44 54 -44 57 0 3 20 6 45 6 25 0 45 5 45 10 0 6 -2 10 -4 10
-2 0 -29 11 -59 25 l-56 24 -43 -23 c-24 -13 -83 -51 -132 -85 -48 -34 -90
-60 -92 -58 -2 1 1 28 5 58 5 29 8 55 7 56 -1 1 -49 -2 -107 -7 -167 -15 -161
-16 -197 35 -18 25 -26 45 -19 45 8 0 7 4 -3 10 -13 9 -13 11 0 19 9 6 19 6
26 0 8 -7 26 -7 53 1 22 6 69 12 105 14 43 2 70 9 81 20 9 9 29 16 45 16 37 0
61 25 57 58 -3 21 -20 36 -79 72 -42 25 -94 61 -116 81 -21 20 -48 41 -58 47
-10 6 -17 13 -14 16 3 2 75 12 160 21 85 9 160 21 165 25 6 5 42 79 80 164 64
142 85 178 85 144z m1401 -228 c18 -10 17 -13 -15 -45 -19 -18 -37 -48 -41
-66 l-7 -32 -25 51 c-14 29 -33 57 -44 63 -19 10 -19 11 8 43 16 17 35 47 43
65 l13 33 24 -51 c14 -28 33 -56 44 -61z m-811 65 c0 -8 -4 -15 -10 -15 -5 0
-10 7 -10 15 0 8 5 15 10 15 6 0 10 -7 10 -15z m-1430 -15 c0 -5 -4 -10 -10
-10 -5 0 -10 5 -10 10 0 6 5 10 10 10 6 0 10 -4 10 -10z m-315 -215 l40 -80
72 -20 c39 -11 74 -23 78 -26 3 -4 -21 -23 -54 -43 -79 -48 -111 -88 -150
-180 -18 -43 -36 -87 -41 -99 -7 -16 -9 -7 -8 38 3 98 -2 219 -10 232 -7 12
-169 43 -224 43 -29 0 -33 11 -5 16 31 5 133 37 144 46 6 5 22 38 35 74 24 66
33 77 41 47 3 -10 6 11 7 47 l2 65 16 -40 c10 -21 35 -75 57 -120z m2205 73
c0 -16 -3 -19 -11 -11 -6 6 -8 16 -5 22 11 17 16 13 16 -11z m-450 -158 c0
-11 -7 -20 -15 -20 -15 0 -21 21 -8 33 12 13 23 7 23 -13z m-2533 -16 c24 -5
53 -50 53 -83 0 -11 -8 -25 -17 -30 -13 -8 -6 -9 29 -4 44 5 50 3 83 -30 27
-27 35 -43 35 -70 0 -45 -33 -87 -68 -87 -20 0 -23 -3 -14 -12 7 -7 12 -29 12
-49 0 -29 -7 -43 -31 -63 -34 -29 -55 -32 -83 -11 -16 12 -22 12 -45 -5 -46
-32 -78 -34 -107 -5 -14 14 -34 25 -45 25 -59 0 -119 69 -119 137 0 50 35 104
75 117 17 6 32 11 34 12 1 2 -4 13 -13 26 -9 12 -16 34 -16 49 0 30 33 77 64
89 20 8 122 5 173 -6z m4696 -191 c-7 -2 -19 -2 -25 0 -7 3 -2 5 12 5 14 0 19
-2 13 -5z m-3399 -95 c50 -48 414 -496 443 -546 65 -111 -17 -27 -291 296
l-188 222 -95 0 c-52 0 -103 -4 -113 -10 -24 -13 -53 -93 -74 -205 -32 -170
-67 -350 -72 -372 -4 -20 0 -23 26 -23 67 0 165 -72 206 -151 20 -40 30 -130
16 -155 -10 -18 -6 -19 55 -19 60 0 66 -2 94 -32 36 -41 45 -77 30 -119 -10
-28 -9 -42 6 -83 l17 -50 12 29 c7 16 32 40 60 56 98 58 210 30 286 -71 21
-27 46 -51 55 -51 10 -1 28 -2 41 -3 15 -1 22 -7 22 -21 0 -18 -4 -20 -35 -14
l-35 6 0 -58 c0 -33 -6 -71 -14 -86 l-14 -27 46 5 c37 4 57 0 91 -18 64 -33
84 -66 89 -144 5 -70 -1 -82 -40 -89 -20 -4 -31 2 -52 30 -45 58 -77 69 -161
56 -67 -11 -74 -11 -124 13 l-53 24 39 26 c37 25 72 63 100 111 19 32 14 42
-7 16 -11 -12 -17 -28 -13 -34 4 -6 1 -7 -7 -2 -7 4 -16 2 -21 -6 -4 -8 -12
-14 -16 -14 -26 -2 -52 -18 -46 -28 5 -9 3 -9 -8 0 -8 7 -24 10 -35 7 -11 -3
-49 4 -83 16 -35 11 -65 19 -67 17 -7 -7 -91 76 -97 96 -4 9 -13 17 -22 17 -8
0 -15 7 -15 15 0 9 -10 20 -22 25 -13 5 -19 9 -15 9 4 1 2 7 -5 15 -7 7 -20
11 -28 8 -8 -3 3 15 26 39 22 24 48 56 57 71 16 26 16 27 -6 24 -12 -2 -30 -7
-40 -11 -10 -4 -36 -5 -57 -2 -54 7 -175 70 -174 89 1 13 -4 14 -30 6 -79 -26
-144 -32 -214 -18 -66 12 -72 12 -115 -10 -26 -13 -45 -26 -43 -29 2 -3 -30
-7 -73 -9 -53 -2 -82 1 -95 11 -24 18 -15 32 35 57 21 11 39 22 39 24 0 7 -36
2 -47 -6 -8 -7 -18 -5 -28 6 -9 9 -24 17 -33 17 -54 4 -122 3 -124 -2 -3 -6
-62 2 -236 31 -41 6 -83 9 -94 7 -11 -3 -31 -1 -44 5 -20 9 -28 8 -42 -5 -15
-16 -15 -17 1 -17 10 0 15 -4 12 -10 -4 -6 16 -10 54 -10 76 0 107 -12 129
-50 9 -16 21 -30 25 -30 5 0 6 4 3 8 -10 16 119 6 146 -12 42 -27 63 -94 45
-146 -12 -33 -11 -37 22 -69 18 -19 40 -50 48 -70 l15 -35 13 29 c15 35 51 70
82 79 30 9 96 -10 117 -33 28 -30 40 -99 21 -117 -21 -22 -19 -31 14 -47 l28
-14 -4 93 c-4 81 -2 99 17 138 85 177 334 189 379 19 7 -24 14 -43 16 -43 3 0
19 9 37 20 42 25 82 25 123 0 62 -38 84 -133 44 -184 -17 -21 -29 -26 -67 -26
l-47 -1 27 -15 c34 -18 56 -83 41 -117 -10 -21 -18 -24 -82 -26 -81 -2 -115
11 -153 61 -19 25 -41 37 -87 51 -43 12 -75 30 -105 57 -24 22 -46 37 -49 33
-11 -11 -8 -39 8 -69 18 -35 20 -100 3 -107 -7 -3 -1 -6 13 -6 33 -1 77 -35
90 -69 11 -29 2 -85 -12 -76 -5 3 -9 0 -9 -5 0 -6 -5 -11 -11 -11 -5 0 -7 5
-3 11 3 6 -5 4 -19 -5 -24 -16 -28 -16 -71 5 -26 12 -49 25 -51 30 -3 4 -26
-6 -50 -22 -59 -40 -113 -41 -191 -4 -65 31 -93 29 -162 -11 -28 -17 -42 -31
-38 -40 7 -18 -18 -18 -34 1 -6 8 -14 32 -17 53 -10 75 51 141 132 143 22 0
34 3 27 6 -6 2 -10 9 -6 14 3 5 0 8 -7 7 -8 -2 -16 14 -20 46 -4 27 -12 52
-17 55 -4 3 -12 14 -15 24 -11 29 -28 16 -61 -46 -20 -37 -40 -60 -57 -66 -22
-7 -25 -6 -25 12 2 37 -32 28 -54 -16 -29 -55 -50 -70 -71 -51 -14 12 -18 13
-28 0 -23 -27 -111 -57 -161 -55 -47 3 -49 2 -88 -47 -50 -64 -85 -79 -140
-64 -23 6 -54 21 -69 34 -22 18 -31 21 -39 12 -24 -26 -26 -56 -5 -92 20 -33
20 -34 1 -24 -67 36 -99 148 -65 235 18 48 83 111 123 122 17 4 21 10 15 22
-4 9 -8 48 -8 88 0 40 -4 75 -8 79 -4 4 -7 2 -7 -6 0 -10 -3 -10 -14 -1 -12
10 -17 0 -30 -56 -8 -37 -20 -69 -26 -71 -5 -2 -10 -15 -10 -28 0 -15 -6 -24
-16 -24 -9 0 -12 5 -8 12 4 7 3 8 -5 4 -9 -6 -9 -11 0 -22 6 -8 9 -17 5 -21
-3 -3 -6 -1 -6 6 0 8 -9 7 -30 -4 -16 -9 -30 -20 -30 -25 0 -6 -6 -10 -14 -10
-7 0 -19 -7 -26 -15 -9 -11 -8 -20 10 -44 17 -24 19 -35 10 -51 -6 -11 -18
-20 -26 -20 -8 0 -26 -12 -39 -26 -24 -26 -25 -26 -25 -5 0 11 -4 21 -10 21
-5 0 -10 -9 -10 -19 0 -37 -33 -79 -66 -86 -19 -3 -44 -19 -61 -39 -15 -19
-37 -35 -48 -38 -12 -2 -19 -10 -17 -21 3 -18 -14 -24 -20 -6 -5 16 -54 -9
-72 -36 -24 -36 -71 -39 -127 -8 -57 30 -70 26 -39 -14 21 -27 21 -28 1 -37
-66 -29 -150 78 -150 194 -1 120 96 221 214 224 l52 1 -18 40 c-35 77 -19 178
38 237 59 62 182 73 243 22 l30 -25 35 27 c30 23 34 29 21 36 -27 15 -58 88
-63 148 -16 176 145 319 321 286 44 -8 104 -64 112 -104 l6 -30 32 19 c17 10
39 19 49 19 16 0 15 5 -8 50 -47 94 -41 220 16 332 33 64 123 153 182 179 74
34 213 34 275 1 23 -12 48 -20 54 -16 6 4 8 3 4 -4 -15 -25 15 -20 46 9 18 17
44 36 58 43 69 36 168 25 220 -24 29 -27 43 -19 18 10 -7 7 0 4 16 -8 38 -29
96 -30 103 -2 3 11 9 20 13 20 4 0 35 27 69 60 34 33 64 60 66 60 12 0 62 60
74 88 10 24 19 32 34 30 23 -4 50 32 30 39 -21 8 -15 21 16 31 22 8 31 7 35
-1 3 -7 4 -3 1 9 -3 12 3 29 15 42 11 11 20 26 20 31 0 18 24 26 95 32 148 12
152 12 189 -23z m2977 -81 c-10 -9 -11 -8 -5 6 3 10 9 15 12 12 3 -3 0 -11 -7
-18z m-3064 -36 c7 -9 12 -23 12 -31 0 -9 -5 -6 -11 8 -8 16 -17 21 -32 16
-50 -15 -71 -30 -70 -51 0 -12 -3 -20 -8 -17 -4 3 -8 20 -8 38 0 69 75 92 117
37z m1451 22 c-21 -2 -57 -2 -80 0 -24 2 -7 4 37 4 44 0 63 -2 43 -4z m-11
-20 c-20 -2 -52 -2 -70 0 -17 2 0 4 38 4 39 0 53 -2 32 -4z m856 -20 c-7 -2
-19 -2 -25 0 -7 3 -2 5 12 5 14 0 19 -2 13 -5z m44 1 c-3 -3 -12 -4 -19 -1 -8
3 -5 6 6 6 11 1 17 -2 13 -5z m-874 -11 c-7 -2 -19 -2 -25 0 -7 3 -2 5 12 5
14 0 19 -2 13 -5z m784 -9 c-3 -3 -12 -4 -19 -1 -8 3 -5 6 6 6 11 1 17 -2 13
-5z m-4265 -109 c11 -33 27 -69 34 -80 20 -28 18 -33 -18 -37 l-33 -3 -5 -130
c-3 -71 -7 -118 -8 -103 -3 41 -62 221 -77 237 -12 12 -10 19 10 43 14 16 35
63 47 103 14 46 24 66 26 52 1 -12 12 -49 24 -82z m1218 20 c0 -8 -4 -15 -10
-15 -5 0 -10 7 -10 15 0 8 5 15 10 15 6 0 10 -7 10 -15z m3650 -166 c18 -6 12
-7 -20 -2 -41 5 -43 4 -30 -12 9 -11 24 -15 42 -13 15 3 29 2 30 -1 6 -12 67
-41 86 -41 12 0 24 -4 27 -10 3 -5 15 -10 26 -10 10 0 19 -5 19 -10 0 -15 63
-51 79 -45 7 3 19 0 27 -6 7 -5 24 -13 38 -17 14 -4 25 -11 25 -15 -1 -16 42
-45 77 -52 25 -4 34 -11 30 -20 -3 -9 5 -16 22 -19 45 -10 802 -96 838 -96 42
0 -15 -110 -147 -285 -103 -137 -69 -126 -324 -98 -121 14 -222 26 -224 28 -2
2 29 41 69 87 80 93 124 151 98 130 -10 -8 -22 -11 -28 -7 -6 4 -9 1 -8 -7 2
-9 -10 -14 -39 -15 -44 -2 -59 15 -22 24 16 4 17 8 7 14 -11 7 44 14 100 12 6
-1 12 4 12 9 0 6 -14 8 -34 5 -19 -3 -87 -1 -153 5 -174 14 -233 16 -233 8 0
-4 62 -12 138 -18 l137 -10 -145 5 c-111 3 -141 1 -130 -7 13 -10 12 -11 -4
-6 -25 8 -52 -13 -34 -27 10 -6 9 -7 -4 -4 -11 4 -39 -18 -89 -70 l-72 -76
-166 17 c-91 9 -205 22 -253 28 l-88 11 82 96 c45 53 91 107 102 120 l21 25
-32 -23 c-27 -18 -33 -19 -33 -7 0 10 -6 13 -15 10 -8 -4 -15 -2 -15 2 0 5
-33 10 -72 12 -40 2 -75 7 -78 13 -4 5 -36 12 -73 16 -37 3 -65 9 -62 13 2 3
-4 6 -13 5 -9 0 -18 -5 -20 -10 -1 -6 26 -13 60 -16 l63 -6 -60 -2 c-116 -6
-110 -3 -199 -94 -143 -146 -171 -142 -46 7 44 53 80 98 80 100 0 2 -37 4 -82
5 -92 1 -298 31 -298 43 0 10 -9 11 95 -11 87 -19 289 -30 302 -17 4 3 -9 6
-28 6 -40 0 -145 22 -244 51 -116 33 -113 33 -93 16 10 -7 43 -19 73 -26 31
-7 54 -15 52 -18 -5 -4 -95 11 -138 23 -11 3 -51 -30 -120 -101 -57 -58 -111
-110 -121 -115 -10 -7 -98 1 -255 21 -131 17 -239 32 -241 34 -1 1 22 29 52
61 49 54 151 179 131 162 -4 -4 -15 -2 -24 5 -14 11 -14 10 -2 -5 9 -12 10
-18 2 -18 -6 0 -11 5 -11 10 0 6 -10 10 -22 11 -18 1 -16 3 10 10 55 16 36 21
-60 15 -83 -4 -86 -4 -33 4 95 15 96 18 5 15 -61 -3 -74 -2 -45 4 37 8 38 8
10 11 -16 1 -39 2 -50 1 -12 -1 -32 3 -45 8 -24 9 -23 10 10 12 l35 1 -30 7
c-20 5 -34 3 -41 -6 -6 -7 -14 -13 -18 -13 -14 0 -35 -28 -28 -35 4 -5 2 -5
-5 -1 -7 4 -45 -30 -95 -84 -77 -85 -130 -131 -127 -113 3 20 -2 34 -11 28 -6
-4 -7 -11 -4 -17 4 -7 2 -8 -5 -4 -9 6 -9 11 0 22 8 10 15 11 24 4 14 -12 25
-3 24 19 0 12 -3 11 -9 -4 -7 -18 -9 -18 -20 10 l-13 30 -7 -25 c-8 -24 -8
-23 -9 7 -1 17 -5 43 -11 57 -17 45 13 25 44 -29 15 -27 16 -27 10 -5 -3 14
-18 39 -34 55 -15 17 -37 46 -49 65 -13 19 -46 56 -75 83 l-51 47 320 -6 c192
-4 432 -2 600 5 667 28 775 32 1039 37 154 2 282 7 285 9 6 7 32 4 61 -6z
m-2205 -150 c20 -28 32 -48 27 -45 -6 3 -27 29 -47 57 -20 28 -32 48 -27 45 6
-3 27 -29 47 -57z m-745 3 c0 -4 -10 -12 -22 -17 -13 -6 -22 -16 -20 -23 3
-17 -18 -15 -24 3 -9 21 14 45 42 45 13 0 24 -3 24 -8z m1287 -68 c-3 -3 -12
-4 -19 -1 -8 3 -5 6 6 6 11 1 17 -2 13 -5z m878 -104 c25 -11 -1 -11 -35 0
-20 6 -21 8 -5 8 11 0 29 -3 40 -8z m-122 -37 c-7 -2 -19 -2 -25 0 -7 3 -2 5
12 5 14 0 19 -2 13 -5z m240 -20 c-7 -2 -19 -2 -25 0 -7 3 -2 5 12 5 14 0 19
-2 13 -5z m350 -20 c-13 -2 -33 -2 -45 0 -13 2 -3 4 22 4 25 0 35 -2 23 -4z
m1697 -57 c0 -6 -5 -4 -11 4 -8 12 -10 11 -7 -5 2 -11 10 -20 18 -20 9 0 17
-13 21 -35 4 -19 7 -29 8 -21 0 8 3 12 6 9 3 -3 -11 -100 -30 -216 -19 -116
-35 -226 -35 -244 0 -39 -9 -31 -48 47 l-30 60 31 183 c18 101 36 180 41 175
5 -4 5 2 2 14 -4 12 -4 39 0 59 6 34 8 36 20 19 8 -10 14 -24 14 -29z m-810
-46 c47 0 70 -4 61 -9 -15 -10 -128 -4 -181 10 l-35 9 40 -5 c22 -3 74 -5 115
-5z m-7 -37 c-13 -2 -33 -2 -45 0 -13 2 -3 4 22 4 25 0 35 -2 23 -4z m-90 -10
c-7 -2 -19 -2 -25 0 -7 3 -2 5 12 5 14 0 19 -2 13 -5z m90 -10 c-13 -2 -33 -2
-45 0 -13 2 -3 4 22 4 25 0 35 -2 23 -4z m-5724 -74 l-21 -21 -19 21 c-19 20
-19 22 -3 44 l17 23 24 -23 23 -23 -21 -21z m-215 -4 c15 -23 15 -27 0 -50
l-16 -25 -20 25 c-18 23 -18 26 -2 50 9 14 18 25 19 25 1 0 10 -11 19 -25z
m3353 -185 c239 -22 568 -58 878 -96 1062 -128 1502 -186 1790 -235 l170 -28
-110 5 c-155 7 -266 19 -965 103 -140 17 -345 42 -455 56 -287 35 -801 98
-1155 141 -168 20 -308 41 -312 47 -3 5 -20 10 -37 9 -17 0 -31 4 -31 9 0 11
-22 12 227 -11z m-29 -75 c2 -2 -1 -12 -7 -23 -9 -18 -15 -19 -45 -10 -40 12
-80 3 -56 -12 8 -6 30 -10 48 -10 17 0 32 -5 32 -11 0 -8 -16 -10 -50 -6 -29
4 -50 2 -50 -3 0 -6 15 -10 33 -10 49 0 77 -11 77 -29 0 -14 -10 -15 -72 -11
-40 3 -73 10 -73 15 1 6 5 36 9 68 l8 58 72 -7 c39 -4 72 -8 74 -9z m-3438
-80 c0 -8 -4 -15 -10 -15 -5 0 -10 7 -10 15 0 8 5 15 10 15 6 0 10 -7 10 -15z
m7068 -7 c-6 -18 -28 -21 -28 -4 0 9 7 16 16 16 9 0 14 -5 12 -12z m-326 -53
c3 -3 -12 -91 -33 -196 -56 -275 -67 -345 -51 -335 9 5 20 -36 30 -109 2 -16
3 -67 3 -112 -1 -52 2 -83 9 -83 15 0 13 -77 -2 -83 -10 -3 -10 -7 0 -19 7 -9
15 -46 19 -84 5 -57 4 -67 -9 -62 -8 4 -15 0 -15 -7 0 -10 7 -11 24 -4 31 12
42 11 23 -1 -12 -8 -12 -10 -1 -10 11 0 11 -3 0 -17 -13 -15 -12 -15 8 -5 29
16 41 15 19 -1 -17 -13 -17 -14 7 -29 19 -13 27 -14 36 -5 9 9 11 8 6 -5 -5
-13 -2 -18 10 -18 10 0 14 5 9 13 -4 7 -3 8 2 4 5 -5 9 -16 9 -25 0 -9 6 -16
12 -15 7 2 12 -1 10 -5 -1 -5 18 -26 44 -48 47 -41 127 -123 144 -147 6 -8 24
-35 42 -59 81 -113 146 -273 185 -455 19 -90 23 -138 23 -285 l0 -178 87 0 87
0 -5 -47 c-2 -27 -11 -136 -19 -243 -32 -410 -90 -907 -115 -976 -40 -116
-126 -219 -225 -273 -47 -25 -55 -26 -55 -5 0 8 5 12 10 9 6 -3 10 -2 10 4 0
6 7 7 17 4 10 -4 14 -2 10 4 -4 6 11 26 33 43 22 17 40 29 40 25 0 -3 15 11
33 32 17 21 37 44 44 51 29 31 74 227 72 313 -1 62 17 358 31 499 5 52 16 160
24 240 9 80 13 157 10 172 -3 15 -19 39 -36 53 -36 31 -69 32 -221 6 -62 -10
-173 -28 -247 -40 -500 -78 -1104 -181 -1355 -231 -145 -29 -367 -70 -700
-130 -271 -49 -350 -64 -997 -194 -345 -69 -630 -126 -634 -126 -6 0 -1 -149
11 -305 3 -43 2 -52 -4 -30 -5 17 -9 26 -10 22 0 -4 -11 -2 -23 5 -13 7 -27
11 -32 10 -5 -2 -13 3 -18 10 -20 27 19 -435 78 -922 25 -214 52 -287 141
-389 24 -28 42 -51 40 -51 -16 0 -36 13 -31 21 3 5 -1 9 -9 9 -16 0 -78 64
-97 100 -26 49 -50 135 -64 237 -17 113 -70 642 -81 798 -7 98 -45 448 -49
452 -3 3 -50 -5 -441 -77 -251 -45 -363 -62 -382 -57 -11 3 -6 5 12 6 29 1
138 28 122 30 -11 1 -359 -58 -376 -64 -8 -3 -23 -2 -35 1 -31 10 97 45 385
103 414 84 648 138 663 152 16 15 -110 0 -269 -31 -82 -16 -260 -49 -395 -72
-234 -41 -254 -43 -440 -42 -131 1 -203 5 -218 13 -17 9 -22 9 -22 -1 0 -10
-3 -9 -9 1 -7 11 -13 12 -24 3 -11 -9 -14 -9 -14 2 0 7 10 12 21 11 12 0 26 2
32 7 5 4 75 21 155 38 281 61 557 122 754 166 267 60 786 175 1015 225 443 96
884 216 1268 344 26 9 10 -13 -20 -29 -45 -22 -23 -20 47 4 32 11 60 18 63 15
15 -14 -93 -86 -247 -164 -247 -125 -461 -207 -691 -266 -58 -14 -112 -29
-120 -32 -8 -3 -22 -7 -30 -9 -26 -5 -152 -33 -215 -48 -33 -8 -50 -14 -38
-15 12 -1 156 26 320 60 451 91 1039 201 1358 253 83 13 258 43 390 66 367 62
818 133 1155 181 l305 44 -115 12 c-145 14 -732 107 -1225 193 -93 16 -210 35
-260 41 l-90 11 -215 -55 c-208 -53 -494 -128 -785 -207 -80 -21 -142 -33
-144 -28 -8 22 38 48 124 72 222 61 490 131 733 192 l262 66 168 -26 c92 -14
266 -42 387 -61 121 -19 228 -35 237 -35 18 0 29 44 86 345 28 143 88 429 128
605 8 36 21 101 29 145 8 44 28 145 45 225 29 136 161 800 176 883 5 32 10 37
33 37 15 0 30 -2 33 -5z m-3694 -84 c-12 -19 -28 -19 -28 0 0 6 4 8 9 4 5 -3
12 -1 16 5 3 5 8 10 11 10 2 0 -1 -9 -8 -19z m762 -66 c129 -14 361 -41 515
-60 154 -19 361 -44 460 -55 743 -85 1763 -225 1665 -229 -76 -3 -422 33
-1175 123 -66 8 -123 12 -127 8 -6 -7 -76 -344 -100 -479 -11 -65 -31 -83 -42
-39 -6 26 19 176 65 389 17 77 29 140 27 141 -2 1 -163 22 -358 45 -195 24
-458 56 -585 71 -126 16 -233 26 -237 24 -4 -3 -8 -16 -8 -29 0 -37 -10 -55
-31 -55 -18 0 -19 5 -13 48 l6 48 -228 28 c-211 26 -264 36 -264 53 0 9 168
-3 430 -32z m3245 -50 c0 -11 -8 -21 -17 -23 -14 -3 -18 3 -18 23 0 20 4 26
18 23 9 -2 17 -12 17 -23z m-7155 -46 c0 -24 -23 -21 -28 4 -2 10 3 17 12 17
10 0 16 -9 16 -21z m2414 -28 c9 -10 18 -34 20 -52 2 -19 1 -26 -1 -16 -2 9
-8 17 -13 17 -9 0 -40 51 -40 65 0 11 18 4 34 -14z m4714 -204 c45 -31 78 -58
73 -61 -5 -3 -26 -32 -47 -63 -41 -62 -66 -148 -80 -274 l-8 -74 -7 90 c-12
151 -31 269 -46 287 -8 9 -21 46 -30 82 -8 36 -19 64 -24 61 -5 -4 -6 0 -3 8
5 14 -39 111 -47 103 -3 -3 -5 4 -5 15 0 14 17 2 71 -50 38 -38 107 -94 153
-124z m317 154 c3 -5 1 -12 -5 -16 -5 -3 -10 1 -10 9 0 18 6 21 15 7z m-3480
-41 c215 -34 446 -122 605 -230 78 -53 211 -159 268 -214 43 -40 96 -106 76
-94 -5 4 -10 -2 -10 -12 0 -15 4 -16 19 -8 17 8 17 7 7 -11 -8 -16 -8 -21 1
-19 6 2 17 -13 24 -32 8 -19 14 -30 15 -25 0 6 8 -3 17 -20 10 -16 16 -33 15
-37 -1 -5 3 -8 9 -8 5 0 7 -4 4 -10 -3 -5 -1 -10 6 -10 7 0 10 -3 6 -6 -3 -3
7 -32 24 -64 61 -121 138 -410 152 -575 l6 -60 -14 50 -13 50 -1 -57 c-1 -51
-3 -58 -21 -58 -12 0 -20 7 -20 18 0 14 -2 15 -10 2 -7 -12 -10 -12 -10 -1 0
7 -6 11 -14 8 -10 -4 -15 15 -20 88 -11 165 -69 350 -163 525 -247 458 -793
742 -1331 692 -224 -21 -416 -87 -598 -208 -236 -157 -415 -347 -549 -584 -48
-84 -121 -246 -151 -334 -71 -206 -87 -475 -44 -701 12 -60 26 -139 33 -175 6
-36 14 -67 18 -70 4 -3 6 -31 5 -62 -1 -47 -4 -58 -18 -58 -20 0 -32 -16 -22
-31 5 -8 9 -8 14 1 4 6 7 -2 6 -18 -1 -21 -4 -27 -12 -21 -17 14 -56 128 -48
141 4 6 3 8 -3 5 -11 -7 -44 94 -68 208 -54 266 -46 580 23 815 72 246 224
520 390 702 289 319 638 498 1027 526 132 9 225 5 370 -18z m664 -152 c289
-163 512 -396 648 -678 85 -177 137 -362 164 -588 11 -97 8 -135 -15 -158 -16
-16 -26 -8 -27 20 0 21 -1 21 -9 1 -6 -15 -9 -8 -9 29 -2 127 -49 362 -97 482
-42 109 -146 314 -190 375 -118 167 -155 218 -169 229 -8 7 -12 17 -8 23 3 6
1 7 -5 3 -7 -4 -16 2 -21 17 -12 31 -142 142 -254 218 -95 64 -100 79 -8 27z
m2171 -52 c0 -24 -3 -27 -10 -16 -5 8 -10 27 -10 43 0 15 -4 27 -10 27 -5 0
-10 6 -10 13 1 27 40 -38 40 -67z m-969 22 c-4 -13 -4 -34 0 -48 4 -14 7 -57
8 -96 1 -70 1 -72 30 -77 51 -10 173 -70 160 -78 -7 -4 -68 -5 -137 -2 -119 5
-125 4 -118 -13 4 -11 10 -39 12 -64 4 -44 4 -45 -11 -20 l-16 25 7 -25 c3
-14 10 -29 15 -34 17 -18 11 -37 -8 -28 -10 5 -23 8 -29 5 -6 -2 -19 8 -30 23
-44 59 -51 65 -78 58 -14 -3 -26 -10 -26 -16 0 -5 -4 -6 -10 -3 -5 3 -11 1
-11 -4 -1 -6 -2 -17 -3 -23 -1 -11 -87 -60 -93 -54 -2 1 13 40 32 86 19 46 35
92 35 101 0 8 -22 53 -50 99 -51 85 -56 95 -42 86 4 -2 51 -12 104 -21 l97
-16 78 80 c43 45 81 81 85 81 4 0 4 -10 -1 -22z m1109 12 c0 -5 7 -10 15 -10
8 0 15 -5 15 -11 0 -5 -4 -7 -10 -4 -5 3 -18 1 -28 -4 -25 -13 -34 -4 -19 20
13 20 27 25 27 9z m-6461 -41 c-29 -18 -44 -9 -19 11 15 11 26 15 29 8 2 -6
-3 -14 -10 -19z m2106 21 l20 -9 -20 -1 -20 -1 20 -9 20 -9 -20 0 c-14 -1 -16
-4 -7 -9 13 -9 7 -42 -8 -42 -4 0 -10 -18 -14 -41 -4 -23 -17 -55 -30 -73 -13
-17 -35 -53 -50 -79 -14 -26 -33 -59 -42 -72 -9 -13 -13 -28 -10 -33 3 -5 -2
-16 -12 -25 -16 -15 -17 -4 -14 199 l3 214 82 -1 c45 0 91 -4 102 -9z m-565
-42 c0 -24 5 -182 10 -353 6 -170 11 -535 11 -810 1 -527 -4 -595 -41 -595
-14 0 -17 -6 -13 -22 4 -22 4 -22 -8 -3 -6 11 -13 21 -14 23 -8 10 -35 -14
-35 -32 0 -30 -18 -46 -52 -46 -22 0 -28 -5 -29 -22 -1 -22 -1 -22 -10 2 -7
22 -8 20 -5 -10 2 -19 7 -44 11 -55 5 -15 4 -17 -3 -6 -8 11 -11 9 -15 -10 -3
-17 -4 -13 -4 11 0 19 -3 46 -7 60 -15 58 -165 1875 -155 1884 4 4 223 21 317
25 l42 1 0 -42z m5611 -276 c78 -156 108 -226 101 -235 -11 -13 -72 -200 -96
-292 -21 -84 -56 -264 -57 -300 -1 -30 -1 -30 -9 5 -5 19 -5 81 0 137 5 56 9
174 9 262 l1 159 -43 6 c-38 5 -122 0 -137 -9 -3 -2 -11 0 -18 4 -10 6 -9 17
3 52 35 97 94 406 96 496 l0 38 20 -50 c11 -27 70 -150 130 -273z m-6318 261
c-7 -2 -19 -2 -25 0 -7 3 -2 5 12 5 14 0 19 -2 13 -5z m-84 -8 c-7 -6 -236
-36 -274 -35 -29 1 -29 0 -10 -15 11 -9 15 -14 8 -11 -7 4 -9 -1 -6 -12 3 -14
12 -17 34 -14 16 2 29 0 29 -6 0 -14 36 -22 48 -10 7 7 14 2 23 -13 7 -13 11
-26 9 -29 -2 -3 14 -14 36 -25 21 -11 44 -26 50 -34 6 -8 18 -11 28 -8 10 4
18 1 20 -6 2 -6 9 -28 15 -47 25 -70 33 -107 51 -230 10 -69 17 -159 16 -202
0 -42 1 -75 4 -73 3 2 6 -27 6 -64 1 -55 0 -60 -6 -26 -4 22 -8 34 -9 26 0 -7
-14 -29 -31 -48 -16 -18 -30 -38 -30 -43 0 -6 -7 -10 -15 -10 -8 0 -15 -5 -15
-11 0 -15 -47 -59 -54 -51 -3 3 -6 0 -6 -6 0 -16 -27 -15 -33 1 -28 70 170
-975 209 -1105 4 -14 1 -16 -13 -11 -10 4 -1 -13 24 -41 50 -57 75 -126 79
-220 2 -38 2 -67 0 -65 -2 2 -11 33 -20 69 -23 92 -60 162 -108 206 l-42 37
-26 -32 c-21 -24 -26 -40 -23 -66 2 -19 -4 -52 -13 -72 -9 -21 -19 -46 -20
-56 -6 -26 -60 -92 -90 -107 -13 -7 -24 -17 -24 -22 0 -4 -5 -8 -11 -8 -6 0
-23 -8 -37 -18 -28 -19 -117 -51 -117 -42 0 3 -13 -5 -29 -17 -16 -13 -31 -21
-35 -19 -4 3 -119 -107 -256 -244 -137 -137 -253 -247 -257 -244 -4 3 -8 17
-8 31 0 21 -2 24 -15 13 -14 -12 -19 -7 -16 13 1 5 -3 6 -8 3 -5 -3 -14 1 -21
9 -8 10 -24 13 -51 10 -22 -3 -39 -1 -39 5 0 5 6 7 14 4 18 -7 28 22 12 35
-16 14 -37 -27 -31 -60 5 -23 58 -79 76 -79 6 0 7 -4 4 -10 -3 -5 -1 -10 4
-10 6 0 28 -16 50 -35 56 -51 146 -102 223 -127 37 -12 68 -25 68 -30 0 -4 7
-5 15 -2 8 4 15 1 15 -6 0 -6 5 -8 10 -5 15 9 12 -11 -4 -24 -8 -6 -19 -25
-26 -41 -7 -17 -18 -30 -25 -30 -6 0 -52 13 -101 30 -98 33 -106 35 -84 19 12
-8 9 -9 -11 -5 -18 4 -26 1 -26 -8 0 -8 8 -11 20 -8 13 3 18 1 13 -6 -4 -7 3
-14 18 -18 32 -8 38 -42 12 -73 -19 -22 -19 -23 -3 -18 10 4 16 3 12 -3 -3 -5
6 -17 20 -26 18 -11 25 -24 22 -36 -3 -10 -1 -18 5 -18 5 0 6 -4 3 -10 -3 -6
1 -7 10 -3 13 5 14 7 3 14 -7 5 -9 9 -4 9 4 0 21 -11 38 -25 16 -14 24 -25 16
-25 -8 -1 -6 -6 7 -16 11 -8 25 -12 32 -10 7 3 13 1 13 -4 0 -6 9 -10 20 -10
11 0 20 -4 20 -8 0 -5 48 -23 108 -41 139 -43 138 -42 60 -36 -36 3 -102 15
-145 27 -43 11 -88 21 -100 22 -11 1 -19 4 -17 7 5 9 -68 29 -79 22 -6 -3 -7
-1 -3 5 5 8 0 12 -13 12 -11 0 -27 7 -35 16 -10 9 -24 13 -36 9 -15 -5 -18 -3
-14 8 3 10 -2 18 -15 22 -12 3 -21 11 -21 16 0 5 -9 9 -20 9 -11 0 -20 -5 -20
-10 0 -11 -11 -4 -51 33 -29 26 -32 21 -8 -13 12 -16 27 -26 32 -23 6 3 7 2 4
-3 -7 -12 1 -24 28 -44 19 -14 19 -14 6 3 -7 9 -12 17 -10 18 25 5 56 3 52 -4
-3 -5 1 -13 8 -18 11 -6 11 -11 1 -21 -9 -9 -12 -9 -12 1 0 7 -5 9 -10 6 -6
-4 -5 -12 4 -21 19 -19 23 -18 29 6 7 26 37 26 37 1 0 -24 -16 -36 -24 -19 -3
7 -5 4 -3 -6 3 -25 56 -41 71 -22 6 8 22 17 36 21 24 6 24 6 -3 -13 -16 -11
-25 -22 -20 -24 4 -3 2 -3 -4 -2 -18 5 -16 -11 3 -27 13 -10 19 -10 36 0 26
16 36 6 19 -21 -15 -24 -4 -39 31 -43 13 -1 27 -3 32 -4 4 0 6 -8 2 -16 -6
-18 29 -39 51 -31 9 4 17 -1 20 -13 3 -11 18 -24 34 -30 18 -6 27 -6 24 -1 -8
14 -3 13 44 -8 22 -10 38 -22 34 -25 -7 -7 10 -10 40 -8 9 1 17 -3 17 -8 0 -6
9 -11 21 -11 11 0 18 -4 15 -9 -8 -12 193 -61 279 -68 68 -6 72 -8 125 -59
l55 -54 -44 0 c-55 0 -237 26 -316 46 -294 73 -524 201 -731 408 -427 428
-538 1106 -289 1771 52 138 111 253 193 376 98 146 292 356 292 316 0 -22 -28
-85 -50 -110 -10 -12 -28 -33 -39 -46 -12 -13 -21 -27 -21 -30 0 -3 -16 -22
-35 -42 -19 -20 -32 -39 -29 -42 3 -3 0 -15 -6 -27 -6 -12 -14 -19 -17 -16 -3
3 0 14 8 23 12 16 12 17 -2 6 -9 -7 -16 -25 -17 -41 0 -15 -12 -51 -27 -80
-165 -328 -193 -696 -75 -982 34 -84 100 -187 142 -226 31 -28 59 -62 92 -108
7 -11 18 -16 25 -12 9 6 9 11 0 22 -6 8 -9 14 -5 14 3 0 -2 8 -11 18 -10 11
-21 17 -24 15 -12 -6 -78 70 -83 96 -45 242 28 600 162 799 57 83 67 85 30 5
-40 -89 -83 -213 -99 -288 -22 -108 -14 -375 11 -335 10 15 17 -6 23 -70 2
-19 5 15 5 75 3 208 37 388 94 495 16 30 27 44 24 30 -34 -178 -40 -228 -40
-370 0 -135 3 -165 23 -230 29 -95 31 -102 18 -117 -14 -19 1 -16 21 5 10 9
78 85 152 167 73 83 145 162 158 177 l25 28 -20 67 c-83 271 -215 732 -293
1018 -50 187 -111 410 -135 495 -102 363 -208 761 -204 764 2 2 96 13 209 25
113 12 261 28 330 36 276 33 510 52 499 40z m2696 -19 c164 -29 284 -69 369
-124 22 -15 58 -34 79 -44 20 -9 37 -18 37 -20 0 -2 -42 -3 -93 -3 -78 0 -97
-3 -127 -22 -19 -13 -30 -23 -25 -23 6 1 18 7 29 15 16 12 20 12 33 -1 8 -8
18 -12 22 -10 4 3 7 -4 7 -14 0 -13 -7 -17 -28 -16 -21 2 -25 -1 -17 -11 8 -9
-1 -23 -36 -55 -26 -24 -52 -43 -59 -43 -6 0 -11 -7 -11 -15 0 -8 -10 -31 -23
-51 -24 -40 -62 -142 -62 -168 0 -9 14 17 31 56 17 41 50 94 74 121 49 54 148
112 191 112 27 0 26 -2 -22 -34 -68 -46 -137 -125 -169 -192 -35 -75 -58 -194
-50 -266 15 -128 108 -252 233 -311 64 -30 73 -32 187 -32 109 0 125 2 177 27
98 45 176 130 203 221 10 33 14 38 20 24 4 -10 2 -30 -6 -45 -7 -15 -18 -41
-25 -59 -11 -31 -11 -32 10 -21 l21 11 -20 -20 c-11 -11 -22 -20 -25 -18 -3 1
-23 -18 -46 -41 -22 -24 -36 -45 -30 -48 6 -2 3 -5 -6 -5 -10 -1 -18 -5 -18
-11 0 -5 8 -7 18 -4 15 5 15 4 -1 -6 -12 -8 -22 -8 -30 -1 -9 7 -17 7 -27 -1
-12 -8 -12 -9 3 -4 14 4 17 0 16 -27 -1 -18 -3 -24 -6 -14 -2 9 -9 15 -14 12
-13 -9 -11 -21 6 -39 14 -14 11 -16 -25 -26 -23 -6 -40 -17 -40 -25 0 -9 -15
-17 -40 -21 -22 -4 -37 -10 -35 -14 7 -12 -25 -21 -49 -15 -14 4 -17 3 -8 -2
8 -7 -6 -17 -45 -33 -32 -13 -64 -30 -72 -38 -8 -7 -22 -11 -32 -9 -11 3 -16
0 -13 -8 3 -7 -5 -15 -17 -18 -13 -4 -20 -9 -16 -13 11 -12 -40 -45 -59 -37
-12 4 -15 3 -10 -5 5 -8 0 -12 -13 -12 -29 0 -52 -11 -45 -22 3 -5 0 -8 -7 -7
-8 2 -25 -3 -38 -10 -21 -12 -23 -11 -18 3 9 22 -6 20 -28 -4 -13 -14 -27 -18
-52 -15 -19 2 -53 -2 -76 -10 -50 -18 -81 -19 -71 -4 4 7 -1 7 -16 -1 -12 -7
-20 -8 -16 -2 3 5 -13 12 -35 16 -73 12 -132 -29 -181 -124 -5 -10 -7 -5 -5
13 4 22 2 25 -9 16 -8 -6 -14 -19 -15 -28 0 -12 -2 -11 -9 4 -8 18 -9 17 -9
-8 -1 -29 -4 -31 -66 -43 -23 -4 -32 -9 -22 -11 9 -3 15 -9 12 -14 -3 -5 -14
-3 -25 4 -16 9 -24 9 -41 -1 -18 -11 -20 -11 -17 5 3 16 -6 18 -76 21 -46 2
-84 -2 -90 -8 -14 -14 -29 -13 -20 3 5 8 3 8 -9 -2 -9 -7 -26 -11 -36 -8 -15
4 -22 -2 -30 -26 -13 -37 -13 -40 -2 -32 5 3 13 0 17 -6 4 -8 3 -9 -4 -5 -7 4
-12 2 -12 -4 0 -6 -4 -9 -9 -6 -9 6 -31 -36 -31 -58 0 -8 -7 -19 -15 -26 -8
-7 -12 -17 -8 -24 3 -6 3 -8 -2 -4 -4 4 -23 -13 -42 -37 -36 -48 -172 -135
-208 -134 -17 0 -17 2 5 11 16 7 20 12 12 15 -10 4 -5 11 14 24 15 10 32 15
37 12 6 -3 7 -1 3 5 -3 6 6 19 21 30 16 11 43 41 62 66 19 25 39 42 44 39 6
-3 7 -1 4 4 -4 6 4 35 17 65 71 161 80 377 24 554 -18 58 -21 89 -19 194 2 91
-2 136 -13 167 -8 22 -12 44 -9 47 4 3 0 6 -7 6 -7 0 -11 3 -7 6 23 23 -114
168 -198 209 -83 41 -181 46 -248 15 -26 -13 -51 -20 -54 -16 -4 3 8 26 25 49
25 35 29 47 19 57 -10 10 -8 12 6 7 12 -5 20 -1 24 11 4 9 18 25 30 36 13 10
22 21 18 24 -3 3 -12 -3 -20 -14 -13 -17 -13 -16 -3 14 7 17 16 32 21 32 4 0
5 -4 2 -10 -3 -5 -1 -10 4 -10 6 0 11 2 11 4 0 2 3 12 6 20 5 12 2 15 -10 10
-9 -3 -16 -1 -16 5 0 6 7 11 16 11 9 0 27 11 40 25 25 27 45 35 24 10 -22 -27
-4 -16 37 23 22 20 39 44 38 52 -3 21 71 75 81 59 4 -7 3 -9 -3 -6 -6 4 -15
-5 -22 -20 -11 -24 -8 -23 25 10 21 20 40 35 42 33 2 -2 -5 -21 -16 -43 -26
-51 -37 -103 -22 -103 6 0 9 4 6 8 -3 5 4 23 15 41 11 18 16 38 12 44 -4 7 0
6 10 -2 13 -11 17 -11 17 -1 0 8 3 10 6 7 4 -4 1 -14 -7 -24 -9 -11 -10 -14
-2 -9 10 5 11 -1 5 -26 -26 -118 16 -238 115 -328 97 -89 204 -130 338 -130
231 0 403 137 476 379 18 61 21 88 16 153 -7 88 -42 181 -83 219 -21 20 -24
39 -6 39 4 0 43 -6 87 -14z m-4264 -92 c6 -42 17 -90 25 -107 15 -27 15 -31 0
-39 -20 -11 -56 -92 -57 -132 -1 -20 -3 -24 -6 -11 -11 52 -47 151 -56 157 -7
4 1 30 21 70 17 35 36 82 44 105 7 23 14 40 16 38 2 -2 8 -38 13 -81z m184 -4
c0 -7 -6 -15 -12 -17 -8 -3 -13 4 -13 17 0 13 5 20 13 18 6 -3 12 -11 12 -18z
m299 -142 c5 -21 0 -34 -24 -60 -16 -18 -30 -36 -30 -41 0 -11 -26 -37 -32
-31 -3 2 -13 -6 -24 -18 -10 -13 -12 -17 -4 -10 19 16 35 16 22 -1 -6 -7 -10
-23 -9 -35 1 -21 12 -26 69 -26 10 0 -21 -39 -83 -104 -112 -117 -168 -192
-228 -302 -47 -88 -127 -284 -137 -335 -5 -27 -10 -35 -22 -30 -12 4 -12 3 -3
-8 9 -11 8 -31 -3 -84 -8 -38 -17 -136 -20 -218 -3 -81 -8 -150 -11 -153 -3
-3 -5 1 -5 9 0 8 -7 61 -15 119 -45 331 10 681 151 950 71 136 260 354 350
405 42 24 46 21 58 -27z m2686 -63 c0 -8 -62 -37 -68 -31 -8 9 2 16 28 21 12
2 25 7 28 10 7 6 12 7 12 0z m2139 -29 c-3 -3 -11 5 -18 17 -13 21 -12 21 5 5
10 -10 16 -20 13 -22z m-2252 4 c-2 -11 -6 -22 -9 -26 -4 -3 -5 2 -3 13 2 10
4 21 4 26 1 4 3 7 6 7 3 0 4 -9 2 -20z m4225 -56 c-5 -26 -10 -30 -23 -17 -14
14 -3 46 14 40 6 -2 10 -13 9 -23z m-1178 0 c3 -8 2 -12 -4 -9 -6 3 -10 10
-10 16 0 14 7 11 14 -7z m-3124 -45 c0 -5 -4 -9 -8 -9 -5 0 -9 7 -9 15 0 8 4
12 9 9 4 -3 8 -9 8 -15z m-2565 -9 c3 -5 2 -10 -4 -10 -5 0 -13 5 -16 10 -3 6
-2 10 4 10 5 0 13 -4 16 -10z m6810 -70 c3 -6 -1 -7 -9 -4 -18 7 -21 14 -7 14
6 0 13 -4 16 -10z m-4369 -60 c0 -12 -4 -16 -9 -11 -5 5 -6 14 -3 20 10 15 12
14 12 -9z m-2229 -191 l43 -161 -100 -116 c-124 -146 -205 -262 -270 -392 -72
-143 -105 -252 -130 -430 -12 -85 -23 -156 -25 -158 -1 -1 -5 30 -8 70 -18
212 53 637 144 866 63 159 166 336 253 433 22 26 43 47 46 48 3 1 24 -71 47
-160z m5303 121 c85 -11 211 -27 280 -35 145 -17 403 -55 409 -61 13 -12 -173
4 -584 51 -232 26 -325 43 -325 57 0 13 51 10 220 -12z m191 -314 c267 -35
416 -59 400 -64 -15 -5 -98 3 -412 39 -171 19 -199 25 -199 40 0 12 3 12 211
-15z m-926 -106 c-3 -5 -11 -10 -16 -10 -6 0 -7 5 -4 10 3 6 11 10 16 10 6 0
7 -4 4 -10z m-50 -50 c-1 -11 -5 -23 -10 -27 -4 -5 -5 -2 -1 5 4 7 2 12 -5 12
-8 0 -8 4 1 15 16 19 17 19 15 -5z m1008 -157 c-7 -2 -21 -2 -30 0 -10 3 -4 5
12 5 17 0 24 -2 18 -5z m157 -24 c8 -4 -5 -5 -30 -2 -25 3 -49 9 -54 14 -11
10 62 0 84 -12z m-3652 -85 l-3 -49 -5 57 c-3 31 -1 53 3 49 5 -5 7 -30 5 -57z
m2763 38 c29 -18 59 -57 59 -77 0 -2 -19 7 -42 20 -24 14 -61 27 -84 31 -44 6
-186 -16 -269 -43 -68 -22 -560 -241 -775 -346 -181 -88 -320 -149 -320 -142
0 11 76 54 463 263 196 106 503 263 552 282 59 23 182 39 280 36 82 -2 106 -6
136 -24z m-2778 -109 c9 -54 19 -121 22 -150 4 -29 15 -84 25 -123 10 -38 16
-80 13 -91 -6 -21 -6 -21 -19 2 -7 13 -13 34 -14 47 0 12 -5 22 -11 22 -7 0
-9 -9 -5 -22 12 -40 19 -93 12 -87 -10 9 -37 120 -31 129 3 5 1 11 -4 14 -5 3
-7 25 -4 48 4 27 2 39 -4 35 -14 -9 -23 49 -23 148 0 153 20 166 43 28z m5491
-33 c9 -22 28 -48 41 -58 l24 -19 -29 -28 c-16 -15 -35 -41 -43 -57 l-14 -29
-27 45 c-15 25 -36 50 -46 56 -19 10 -18 13 15 47 20 20 38 47 41 60 9 33 18
29 38 -17z m-8177 -262 c-3 -8 -6 -5 -6 6 -1 11 2 17 5 13 3 -3 4 -12 1 -19z
m8088 -78 c0 -7 -6 -15 -12 -17 -8 -3 -13 4 -13 17 0 13 5 20 13 18 6 -3 12
-11 12 -18z m-5307 -32 c13 -23 16 -35 8 -32 -14 5 -36 46 -36 66 0 14 1 13
28 -34z m-75 -208 c-3 -12 -8 -19 -11 -16 -5 6 5 36 12 36 2 0 2 -9 -1 -20z
m24 -12 c-3 -8 -6 -5 -6 6 -1 11 2 17 5 13 3 -3 4 -12 1 -19z m4776 -46 c20
-2 27 -7 27 -23 0 -13 -4 -18 -12 -13 -7 5 -8 3 -4 -5 5 -8 -61 -82 -186 -209
-106 -108 -222 -233 -258 -277 -180 -223 -411 -464 -388 -403 4 9 4 19 0 22
-3 4 -8 30 -10 59 -3 37 -9 55 -24 65 -14 10 -19 23 -16 43 3 15 1 26 -3 24
-9 -6 -19 20 -19 50 0 27 -15 42 -23 22 -2 -6 -1 -21 3 -32 8 -22 3 -45 -11
-45 -5 0 -9 11 -9 24 0 14 -5 28 -11 31 -6 4 -8 13 -6 19 3 7 1 19 -4 27 -7
12 -9 12 -9 -1 -1 -9 -6 -5 -14 10 -7 14 -19 84 -26 157 -11 108 -11 140 0
179 20 70 71 117 151 138 52 13 525 105 693 134 37 7 96 8 159 4z m-4512 -44
c18 -20 23 -28 16 -28 -2 0 -14 11 -27 25 -13 14 -20 25 -15 25 4 0 16 -10 26
-22z m4594 -164 c-9 -14 -19 -23 -23 -19 -4 3 -2 9 4 13 6 4 15 18 19 32 5 14
10 19 13 12 2 -7 -4 -24 -13 -38z m-5638 -94 c18 -10 40 -31 49 -45 l17 -26
-53 -52 c-39 -38 -45 -42 -21 -14 37 45 37 62 -1 90 -22 17 -31 18 -59 8 -44
-15 -48 -7 -14 29 34 35 40 36 82 10z m3713 -51 c43 -31 43 -32 20 -44 -13 -7
-18 -15 -12 -19 6 -3 12 0 15 6 2 7 8 10 12 6 4 -4 1 -13 -6 -21 -12 -13 -16
-13 -34 1 -20 17 -20 17 -2 -4 9 -11 17 -26 17 -33 0 -7 5 -9 10 -6 7 5 9 -49
6 -167 -5 -207 -11 -259 -45 -418 -5 -25 -7 -48 -5 -52 3 -5 0 -8 -5 -8 -6 0
-11 8 -11 18 -1 9 -7 0 -15 -21 -15 -43 -25 -57 -25 -36 -1 10 -4 9 -11 -4 -5
-9 -7 -22 -4 -27 3 -6 1 -10 -5 -10 -6 0 -8 -5 -4 -12 5 -7 3 -8 -5 -4 -19 12
-52 -24 -45 -48 3 -13 2 -16 -3 -9 -10 14 -93 -87 -93 -113 0 -8 -5 -12 -11
-8 -8 4 -9 -1 -4 -17 4 -15 3 -19 -3 -11 -6 9 -19 -2 -45 -40 -20 -29 -35 -56
-34 -60 1 -3 -11 -19 -28 -33 -16 -15 -24 -24 -18 -21 9 5 11 2 7 -8 -3 -9
-10 -14 -14 -11 -9 6 -25 -13 -17 -21 8 -8 187 55 234 82 56 33 107 94 143
170 33 68 52 165 105 539 20 137 38 251 40 254 10 9 4 -64 -20 -281 -33 -286
-60 -454 -84 -518 -39 -103 -137 -199 -241 -235 -112 -40 -833 -227 -1020
-265 -102 -21 -156 -18 -202 9 -31 17 -39 38 -10 26 52 -23 67 -18 105 32 70
90 92 117 131 158 34 36 36 37 15 6 -13 -18 -33 -45 -44 -60 -53 -72 -96 -143
-91 -149 8 -7 103 11 201 38 39 11 135 36 215 56 259 64 321 80 316 85 -2 2
10 4 28 5 39 0 126 35 126 50 0 5 16 41 35 80 19 38 35 72 35 77 0 4 9 16 20
27 23 23 27 60 5 60 -8 0 -12 -6 -9 -14 4 -11 0 -13 -20 -8 -14 4 -25 11 -25
16 1 17 -30 27 -48 17 -10 -6 -12 -11 -5 -11 6 0 12 -4 12 -10 0 -5 -18 -10
-41 -10 -29 0 -40 4 -36 13 3 9 -6 11 -34 9 -37 -4 -43 0 -119 74 -44 42 -80
83 -80 89 0 20 -34 13 -73 -15 -25 -18 -34 -30 -25 -33 10 -4 10 -8 -2 -16
-19 -14 -33 -14 -25 -1 16 26 -12 4 -78 -62 -40 -39 -71 -75 -69 -80 1 -5 -8
-3 -20 3 -21 11 -22 11 -9 -5 18 -21 9 -30 -35 -33 -26 -1 -58 -18 -112 -59
-43 -32 -79 -60 -82 -63 -3 -3 -27 -24 -55 -45 -68 -54 -73 -59 -127 -111
l-47 -47 -20 69 c-29 97 -86 698 -79 825 2 37 1 62 -3 57 -12 -20 -16 39 -4
62 11 19 13 20 16 6 3 -13 6 -11 16 8 6 14 7 23 3 20 -5 -3 -11 -1 -14 4 -8
13 72 80 120 101 22 10 76 25 120 35 157 33 672 137 794 161 69 14 195 40 280
58 206 45 254 46 310 5z m-3615 -136 c22 -21 73 -74 112 -117 56 -61 70 -82
62 -92 -9 -11 -35 12 -124 104 -62 64 -110 122 -108 129 8 19 14 16 58 -24z
m-177 -28 c-18 -18 -35 -31 -37 -29 -3 2 0 9 6 15 6 6 9 19 6 28 -4 14 -3 14
6 1 9 -13 15 -9 13 10 0 3 8 7 19 7 16 2 14 -4 -13 -32z m5666 -133 c-33 -48
-109 -158 -169 -244 -59 -87 -112 -158 -117 -158 -5 0 -6 6 -2 13 21 35 184
271 229 332 29 39 65 89 80 113 15 23 30 40 33 37 3 -3 -21 -45 -54 -93z
m-5744 84 c0 -2 -8 -10 -17 -17 -16 -13 -17 -12 -4 4 13 16 21 21 21 13z m30
0 c0 -2 -8 -10 -17 -17 -16 -13 -17 -12 -4 4 13 16 21 21 21 13z m217 -113
l103 -108 -36 -35 c-20 -19 -34 -30 -31 -24 4 6 -5 17 -18 24 -13 7 -22 16
-20 20 5 8 -79 80 -93 80 -5 0 -18 17 -27 38 -28 60 -35 65 -55 40 -9 -12 -25
-23 -34 -24 -10 -1 4 18 34 47 28 27 57 49 63 49 7 0 58 -48 114 -107z m400
26 c36 -13 338 -313 353 -350 9 -22 9 -32 -5 -56 -9 -15 -14 -20 -11 -10 10
31 -18 68 -151 197 -186 182 -196 190 -244 190 -35 0 -47 -7 -92 -51 -43 -42
-46 -48 -20 -33 31 17 31 17 70 -14 21 -17 103 -96 182 -176 124 -124 143
-147 132 -160 -11 -14 -17 -11 -45 22 -18 20 -97 101 -177 179 -137 135 -146
142 -166 128 -11 -8 -22 -12 -25 -10 -3 3 -80 -72 -173 -166 l-168 -170 42
-43 c22 -23 41 -46 41 -52 0 -18 -278 -284 -297 -284 -10 0 -23 10 -28 22 -12
27 -35 35 -35 13 0 -12 -6 -16 -20 -12 -10 3 -21 0 -24 -7 -2 -6 -3 1 -2 16 1
27 101 141 401 460 72 76 171 184 221 239 50 55 104 109 120 120 32 21 78 24
121 8z m5182 -174 c-22 -67 -42 -95 -99 -137 -37 -28 -45 -21 -11 8 66 55 105
140 118 254 l8 65 3 -60 c2 -41 -4 -81 -19 -130z m-7059 -9 c0 -3 -4 -8 -10
-11 -5 -3 -10 -1 -10 4 0 6 5 11 10 11 6 0 10 -2 10 -4z m3437 -18 c-3 -8 -6
-5 -6 6 -1 11 2 17 5 13 3 -3 4 -12 1 -19z m-2258 -133 c55 -58 101 -111 101
-119 0 -7 -73 -84 -162 -171 -88 -87 -158 -150 -154 -140 5 15 4 16 -9 5 -12
-10 -15 -10 -15 0 0 7 -7 10 -16 6 -15 -6 -15 -4 -3 10 7 9 15 12 16 7 4 -12
51 -4 60 10 4 6 1 7 -6 3 -7 -5 -19 0 -27 10 -15 18 -15 18 -10 0 5 -14 2 -17
-10 -12 -8 3 -18 6 -20 6 -3 0 -3 4 0 8 3 5 -12 25 -32 44 -36 34 -67 101 -56
120 3 4 0 8 -6 8 -7 0 -9 7 -6 16 6 17 -6 12 -38 -15 -16 -13 -18 -13 -11 -1
5 8 19 26 31 40 12 14 51 59 85 100 54 64 85 96 154 160 20 18 34 8 134 -95z
m4540 53 c3 40 22 -7 60 -145 24 -87 46 -165 49 -173 5 -12 3 -13 -9 -3 -15
12 -36 12 -56 0 -6 -4 -14 -3 -18 2 -3 6 -13 7 -22 4 -12 -5 -14 -3 -8 8 7 12
6 12 -7 1 -13 -11 -19 -5 -39 40 -21 48 -66 175 -89 253 -8 27 -8 28 4 12 11
-14 22 -17 50 -11 20 3 39 10 42 15 3 5 10 7 15 4 5 -4 9 0 10 7 0 7 4 4 9 -7
5 -11 9 -14 9 -7z m526 -105 c-9 -16 -30 -44 -46 -63 -20 -22 -15 -12 12 28
44 64 62 83 34 35z m-3956 -292 l155 -150 -45 -49 c-52 -58 -73 -63 -97 -22
-9 16 -21 30 -25 30 -5 0 -6 4 -3 9 3 4 -7 19 -22 32 l-27 24 23 -27 24 -26
-21 -11 c-12 -7 -21 -8 -21 -2 0 5 6 12 13 15 6 3 2 3 -10 1 -12 -3 -24 -1
-28 5 -5 8 -11 8 -21 -1 -12 -10 -13 -9 -7 6 5 14 3 17 -9 12 -15 -5 -48 20
-48 36 0 14 -34 46 -43 40 -6 -4 -7 -1 -2 6 8 14 -33 63 -46 55 -5 -3 -6 2 -3
10 10 27 94 1 94 -29 0 -8 5 -15 10 -15 18 0 -8 37 -45 66 -19 14 -35 30 -35
34 0 9 73 100 80 100 3 0 74 -67 159 -149z m2017 121 c1 -7 0 -8 -3 -2 -7 14
-23 13 -23 -3 0 -17 -37 -39 -45 -27 -3 6 1 10 9 10 8 0 20 9 26 21 12 21 32
22 36 1z m-2488 -26 c-13 -13 -45 -49 -71 -80 -27 -31 -53 -56 -58 -56 -12 0
132 159 144 160 4 0 -2 -11 -15 -24z m-469 -124 c-57 -59 -106 -106 -108 -105
-5 4 200 213 208 213 2 0 -43 -49 -100 -108z m331 -25 c0 -2 -15 -16 -32 -33
l-33 -29 29 33 c28 30 36 37 36 29z m280 -41 c0 -2 -7 -7 -16 -10 -8 -3 -12
-2 -9 4 6 10 25 14 25 6z m12 -43 c10 -9 18 -24 18 -35 0 -10 6 -18 13 -18 7
0 24 -10 37 -22 14 -13 28 -23 32 -23 4 0 26 -25 48 -55 23 -30 50 -66 61 -80
21 -27 24 -40 10 -40 -5 0 -12 -8 -15 -17 -3 -10 -19 -32 -35 -49 -17 -18 -28
-34 -25 -36 9 -10 -126 -129 -138 -122 -71 40 -308 251 -308 273 0 4 55 60
121 124 124 120 146 132 181 100z m665 -3 c44 -26 68 -75 54 -106 -13 -30 -31
-31 -31 -3 0 23 -25 53 -38 45 -5 -3 -20 6 -33 20 -17 18 -19 23 -6 18 9 -3
17 -10 17 -16 0 -5 5 -6 10 -3 6 4 -1 15 -17 28 -47 35 -48 37 -17 37 16 0 43
-9 61 -20z m1358 0 c-3 -5 -12 -10 -18 -10 -7 0 -6 4 3 10 19 12 23 12 15 0z
m-3008 -35 c0 -8 -4 -12 -9 -9 -5 3 -6 10 -3 15 9 13 12 11 12 -6z m107 0 c3
-9 0 -15 -9 -15 -16 0 -27 14 -18 24 10 10 21 7 27 -9z m-859 -34 c3 -5 1 -12
-5 -16 -5 -3 -10 1 -10 9 0 18 6 21 15 7z m2045 -17 c0 -8 -4 -12 -10 -9 -5 3
-10 10 -10 16 0 5 5 9 10 9 6 0 10 -7 10 -16z m4302 -61 c-79 -110 -361 -404
-523 -544 -357 -308 -847 -565 -1349 -707 -180 -51 -448 -104 -585 -116 l-60
-5 50 10 c28 5 64 14 80 20 17 6 71 17 120 24 132 21 349 70 446 101 192 61
319 107 401 144 47 22 90 40 95 40 9 0 172 83 240 121 318 181 559 365 808
619 97 99 122 127 238 263 51 60 72 76 39 30z m-6166 -76 c4 -4 0 -7 -9 -7 -9
0 -18 4 -21 9 -7 10 20 9 30 -2z m2339 -120 c63 -61 77 -80 65 -87 -10 -6 -25
1 -51 23 -20 18 -63 53 -96 79 -33 25 -63 56 -66 67 -3 12 -1 19 4 15 5 -3 9
3 9 12 0 21 11 12 135 -109z m54 -117 c-2 -17 -18 -43 -18 -31 -1 11 -5 11
-19 -2 -10 -10 -22 -14 -25 -10 -4 3 -7 0 -7 -8 0 -8 -9 -20 -20 -27 -16 -10
-20 -10 -20 2 0 13 36 65 53 77 11 8 57 7 56 -1z m151 -151 c47 -39 86 -75 88
-78 1 -4 -10 -18 -25 -32 -16 -14 -21 -16 -13 -5 13 17 12 20 -10 35 -41 26
-165 137 -165 147 0 5 -4 15 -9 22 -17 27 49 -16 134 -89z m-2360 -115 c151
-114 613 -404 643 -404 5 0 -3 11 -17 23 -14 13 -22 28 -18 32 4 5 -1 5 -10 2
-11 -4 -18 -1 -18 6 0 8 -35 37 -77 67 -75 51 -294 264 -315 305 -8 16 50 -31
82 -66 3 -3 48 -39 100 -80 147 -116 259 -191 271 -183 7 4 9 3 6 -3 -8 -13
10 -28 42 -36 18 -4 21 -3 12 6 -15 15 -14 32 2 20 19 -15 49 -24 42 -13 -10
17 5 49 28 61 22 10 22 10 2 -7 -20 -16 -19 -16 6 -10 31 7 85 -35 73 -57 -6
-9 -4 -9 8 1 9 7 18 9 20 5 7 -17 176 -142 264 -196 50 -30 149 -82 220 -115
301 -141 506 -203 774 -236 69 -9 141 -18 160 -20 19 -2 -48 -3 -150 -1 -360
8 -796 78 -1120 180 -393 124 -822 377 -1107 651 -85 81 -98 101 -60 95 7 -1
11 18 10 47 -1 15 45 -12 127 -74z m2505 7 c3 -5 -9 -20 -27 -33 l-33 -23 25
32 c29 37 27 36 35 24z"/>
<path d="M4895 8620 c-3 -5 -1 -10 4 -10 6 0 11 5 11 10 0 6 -2 10 -4 10 -3 0
-8 -4 -11 -10z"/>
<path d="M5035 8589 c-33 -11 -66 -21 -73 -24 -10 -4 -8 -12 7 -32 27 -37 73
-177 65 -198 -4 -9 -13 -14 -20 -11 -7 3 -16 1 -19 -5 -4 -5 0 -12 9 -15 9 -3
12 -12 9 -21 -4 -9 -2 -14 3 -10 6 3 16 -4 24 -16 12 -20 12 -21 -4 -8 -9 8
-19 11 -22 8 -3 -3 7 -12 23 -20 15 -8 52 -31 82 -51 30 -20 56 -35 58 -32 4
4 -11 101 -23 152 -5 20 1 22 90 34 53 8 96 18 96 23 0 5 -10 7 -22 4 -13 -3
-58 -9 -100 -13 l-77 -7 -11 29 c-12 32 -4 104 14 117 6 5 -1 6 -16 3 -27 -6
-38 6 -18 19 6 3 10 19 10 35 0 19 6 30 18 33 9 3 1 6 -18 7 l-35 3 35 7 c34
7 34 7 5 8 -16 0 -57 -9 -90 -19z"/>
<path d="M5673 8393 c9 -2 23 -2 30 0 6 3 -1 5 -18 5 -16 0 -22 -2 -12 -5z"/>
<path d="M5458 8383 c12 -2 32 -2 45 0 12 2 2 4 -23 4 -25 0 -35 -2 -22 -4z"/>
<path d="M7281 8276 c2 -2 18 -6 34 -10 22 -5 26 -4 15 4 -14 9 -59 15 -49 6z"/>
<path d="M6373 8243 c15 -2 37 -2 50 0 12 2 0 4 -28 4 -27 0 -38 -2 -22 -4z"/>
<path d="M5478 8233 c12 -2 30 -2 40 0 9 3 -1 5 -23 4 -22 0 -30 -2 -17 -4z"/>
<path d="M6308 8233 c7 -3 16 -2 19 1 4 3 -2 6 -13 5 -11 0 -14 -3 -6 -6z"/>
<path d="M8322 8220 c0 -14 2 -19 5 -12 2 6 2 18 0 25 -3 6 -5 1 -5 -13z"/>
<path d="M6338 8213 c34 -2 90 -2 125 0 34 2 6 3 -63 3 -69 0 -97 -1 -62 -3z"/>
<path d="M8060 8140 c0 -5 5 -10 10 -10 6 0 10 5 10 10 0 6 -4 10 -10 10 -5 0
-10 -4 -10 -10z"/>
<path d="M3020 8300 c0 -5 5 -10 10 -10 6 0 10 5 10 10 0 6 -4 10 -10 10 -5 0
-10 -4 -10 -10z"/>
<path d="M3003 8185 c-6 -14 -7 -25 -3 -25 10 0 24 19 26 38 4 21 -10 13 -23
-13z"/>
<path d="M2883 8184 c-7 -7 -13 -18 -13 -24 0 -6 -3 -9 -7 -7 -5 3 -14 -1 -21
-9 -10 -11 -10 -14 1 -14 23 0 60 34 56 52 -3 13 -6 14 -16 2z"/>
<path d="M3506 7805 c4 -11 10 -45 12 -75 3 -41 7 -50 13 -35 13 34 10 63 -12
97 -12 18 -18 24 -13 13z"/>
<path d="M3630 7509 c0 -5 5 -7 10 -4 6 3 10 8 10 11 0 2 -4 4 -10 4 -5 0 -10
-5 -10 -11z"/>
<path d="M2661 7038 c0 -16 -5 -28 -10 -28 -5 0 -12 -8 -16 -17 -4 -13 2 -25
22 -40 36 -29 47 -29 31 0 -7 12 -15 42 -19 67 -4 28 -7 35 -8 18z"/>
<path d="M2568 6963 c7 -3 16 -2 19 1 4 3 -2 6 -13 5 -11 0 -14 -3 -6 -6z"/>
<path d="M2496 6935 c-11 -8 -16 -15 -10 -15 5 0 18 7 28 15 11 8 16 15 10 15
-5 0 -18 -7 -28 -15z"/>
<path d="M6930 7850 c19 -13 30 -13 30 0 0 6 -10 10 -22 10 -19 0 -20 -2 -8
-10z"/>
<path d="M5281 7736 c2 -2 26 -6 53 -9 30 -3 43 -1 35 4 -13 8 -97 13 -88 5z"/>
<path d="M6095 7660 c-5 -8 38 -16 195 -40 41 -6 92 -14 112 -19 20 -4 42 -5
49 -1 15 10 -13 15 -329 64 -12 2 -25 0 -27 -4z"/>
<path d="M6073 7623 c8 -13 122 -31 237 -37 124 -7 106 -1 -55 19 -71 8 -143
18 -159 21 -17 4 -26 2 -23 -3z"/>
<path d="M6265 7569 c40 -9 136 -9 157 -1 9 4 -29 7 -85 7 -56 0 -88 -2 -72
-6z"/>
<path d="M7645 7510 c39 -9 182 -14 174 -6 -2 2 -51 6 -109 9 -71 4 -92 3 -65
-3z"/>
<path d="M7580 7485 c47 -8 122 -14 167 -15 120 0 116 -20 -4 -22 l-98 -2 100
-5 c57 -4 95 -9 87 -14 -23 -16 -282 5 -364 29 -10 3 -18 1 -18 -3 0 -24 333
-57 377 -38 10 5 21 8 25 7 4 -1 4 6 1 15 -5 12 -2 15 10 10 9 -3 17 -2 17 3
0 6 -5 10 -11 10 -5 0 -7 5 -4 10 3 6 -2 11 -12 12 -10 0 2 4 27 9 l45 7 -50
-4 c-94 -8 -160 -8 -270 -2 l-110 7 85 -14z"/>
<path d="M7540 7461 c25 -9 107 -15 99 -7 -2 2 -31 6 -64 9 -39 4 -51 3 -35
-2z"/>
<path d="M8397 7353 c-4 -3 -7 -16 -6 -27 0 -19 1 -19 10 3 10 24 8 36 -4 24z"/>
<path d="M8166 6274 c-4 -9 -4 -19 -1 -22 2 -3 7 3 11 12 4 9 4 19 1 22 -2 3
-7 -3 -11 -12z"/>
<path d="M8183 6229 c-2 -23 3 -25 10 -4 4 8 3 16 -1 19 -4 3 -9 -4 -9 -15z"/>
<path d="M8161 6224 c0 -11 3 -14 6 -6 3 7 2 16 -1 19 -3 4 -6 -2 -5 -13z"/>
<path d="M8180 6136 c0 -34 4 -55 10 -51 10 6 8 91 -3 102 -4 3 -7 -19 -7 -51z"/>
<path d="M8138 6153 c-4 -86 -5 -86 9 -67 15 21 17 94 3 94 -5 0 -11 -12 -12
-27z"/>
<path d="M8232 5810 c0 -19 2 -27 5 -17 2 9 2 25 0 35 -3 9 -5 1 -5 -18z"/>
<path d="M8045 5718 c-22 -100 -104 -476 -175 -813 -33 -153 -62 -287 -65
-296 -7 -20 -32 -15 360 -73 165 -25 336 -52 380 -60 71 -13 253 -31 197 -19
-13 2 -19 9 -16 15 4 7 2 8 -4 4 -6 -4 -20 1 -31 11 -38 35 -49 42 -55 36 -3
-4 -6 2 -7 13 0 18 -1 18 -9 -1 -8 -19 -9 -19 -16 4 -7 22 -8 23 -14 6 -4 -10
-5 44 -2 121 5 160 -11 276 -58 415 -70 211 -178 387 -356 584 -38 43 -75 88
-82 101 -7 13 -17 24 -21 24 -5 0 -17 -33 -26 -72z m223 -313 c185 -198 269
-401 288 -692 5 -82 3 -121 -6 -143 -11 -27 -15 -29 -29 -17 -20 17 -103 57
-119 57 -8 0 -12 21 -12 63 0 201 -70 428 -184 597 l-55 83 15 36 c8 19 12 41
10 48 -3 7 -1 13 4 13 5 0 7 7 4 15 -13 33 18 11 84 -60z"/>
<path d="M5088 3813 c7 -3 16 -2 19 1 4 3 -2 6 -13 5 -11 0 -14 -3 -6 -6z"/>
<path d="M3928 3513 c6 -2 18 -2 25 0 6 3 1 5 -13 5 -14 0 -19 -2 -12 -5z"/>
<path d="M8739 3013 c-13 -16 -12 -17 4 -4 9 7 17 15 17 17 0 8 -8 3 -21 -13z"/>
<path d="M6993 5865 c0 -8 4 -12 9 -9 5 3 6 10 3 15 -9 13 -12 11 -12 -6z"/>
<path d="M1953 6131 c-68 -10 -125 -20 -129 -23 -3 -4 8 -54 25 -114 17 -59
31 -112 31 -119 0 -7 7 -15 15 -19 9 -3 15 0 15 10 0 13 4 12 31 -2 17 -8 40
-14 50 -11 10 3 28 -4 40 -14 12 -10 26 -19 31 -19 5 0 13 -10 18 -22 7 -19 9
-19 9 -5 1 24 21 11 21 -14 0 -10 4 -19 9 -19 11 0 85 -219 77 -227 -3 -3 1
-17 8 -32 7 -14 16 -69 20 -121 4 -52 10 -98 15 -102 4 -5 5 -24 3 -43 -4 -33
-6 -35 -43 -35 -38 0 -39 -1 -39 -34 0 -21 -6 -36 -16 -40 -8 -3 -12 -2 -9 4
3 6 1 10 -4 10 -6 0 -11 -4 -11 -10 0 -5 -9 -10 -20 -10 -14 0 -20 7 -20 22 0
12 -3 19 -6 15 -7 -7 19 -118 151 -642 135 -532 164 -626 181 -582 3 9 11 14
17 10 5 -3 7 -1 3 5 -3 6 -2 13 4 17 6 4 7 12 3 18 -4 7 2 5 12 -3 10 -8 16
-10 12 -4 -7 11 19 29 36 25 5 -1 6 2 4 6 -3 5 1 14 9 21 8 7 14 10 14 6 0 -4
8 0 19 10 21 19 21 24 -34 261 -123 540 -186 821 -274 1235 -96 446 -135 610
-145 609 -6 -1 -66 -9 -133 -18z"/>
<path d="M2060 5184 c0 -8 5 -12 10 -9 6 3 10 10 10 16 0 5 -4 9 -10 9 -5 0
-10 -7 -10 -16z"/>
<path d="M1463 3397 c4 -10 7 -24 7 -30 0 -8 3 -8 11 0 9 9 7 16 -7 30 -17 17
-18 17 -11 0z"/>
<path d="M1886 3353 c-6 -14 -5 -15 5 -6 7 7 10 15 7 18 -3 3 -9 -2 -12 -12z"/>
<path d="M1490 3345 c0 -11 5 -27 10 -35 8 -12 10 -12 10 5 0 11 -5 27 -10 35
-8 12 -10 12 -10 -5z"/>
<path d="M1849 3313 c-13 -16 -12 -17 4 -4 9 7 17 15 17 17 0 8 -8 3 -21 -13z"/>
<path d="M1525 3310 c-4 -6 -1 -17 5 -25 6 -8 8 -20 4 -26 -5 -8 -3 -9 6 -4
10 6 12 4 7 -8 -3 -9 -2 -19 2 -21 4 -3 8 8 7 25 -1 16 -7 34 -15 38 -7 5 -10
14 -7 20 4 6 5 11 2 11 -3 0 -8 -5 -11 -10z"/>
<path d="M5630 5961 c0 -5 7 -12 16 -15 24 -9 28 -7 14 9 -14 17 -30 20 -30 6z"/>
<path d="M4160 5805 c-8 -9 -8 -15 -2 -15 12 0 26 19 19 26 -2 2 -10 -2 -17
-11z"/>
<path d="M5025 5121 c-36 -16 -58 -50 -63 -99 -5 -53 16 -89 56 -97 13 -2 32
-7 42 -10 10 -3 35 1 55 9 65 27 82 127 30 176 -25 24 -89 35 -120 21z"/>
<path d="M6099 5023 c-13 -16 -12 -17 4 -4 9 7 17 15 17 17 0 8 -8 3 -21 -13z"/>
<path d="M6020 5010 c-18 -12 -2 -12 25 0 13 6 15 9 5 9 -8 0 -22 -4 -30 -9z"/>
<path d="M6118 4963 c7 -3 16 -2 19 1 4 3 -2 6 -13 5 -11 0 -14 -3 -6 -6z"/>
<path d="M5281 4937 c-84 -43 -93 -180 -14 -216 30 -14 56 -14 48 -1 -4 6 7
10 25 10 23 0 42 10 66 34 28 28 34 41 34 78 0 49 -22 78 -73 97 -36 14 -56
14 -86 -2z"/>
<path d="M4905 4806 c-71 -31 -90 -124 -39 -185 20 -25 34 -31 63 -31 57 0
100 19 116 51 37 70 19 140 -40 165 -42 17 -61 17 -100 0z"/>
<path d="M5710 4735 c0 -8 2 -15 4 -15 2 0 6 7 10 15 3 8 1 15 -4 15 -6 0 -10
-7 -10 -15z"/>
<path d="M5018 4593 c7 -3 16 -2 19 1 4 3 -2 6 -13 5 -11 0 -14 -3 -6 -6z"/>
<path d="M1080 5959 c0 -5 5 -7 10 -4 6 3 10 8 10 11 0 2 -4 4 -10 4 -5 0 -10
-5 -10 -11z"/>
<path d="M1431 5774 c0 -11 3 -14 6 -6 3 7 2 16 -1 19 -3 4 -6 -2 -5 -13z"/>
<path d="M1495 5720 c-3 -5 1 -10 10 -10 9 0 13 5 10 10 -3 6 -8 10 -10 10 -2
0 -7 -4 -10 -10z"/>
<path d="M6714 3712 c3 -5 0 -13 -6 -15 -8 -3 -6 -6 5 -6 19 -1 23 14 5 25 -6
4 -8 3 -4 -4z"/>
<path d="M5979 2933 c-13 -16 -12 -17 4 -4 16 13 21 21 13 21 -2 0 -10 -8 -17
-17z"/>
<path d="M5587 2663 c-3 -5 6 -9 20 -10 19 -1 22 1 12 8 -17 11 -26 11 -32 2z"/>
<path d="M3780 2675 c13 -14 26 -25 28 -25 3 0 -5 11 -18 25 -13 14 -26 25
-28 25 -3 0 5 -11 18 -25z"/>
<path d="M4235 2340 c3 -5 8 -10 11 -10 2 0 4 5 4 10 0 6 -5 10 -11 10 -5 0
-7 -4 -4 -10z"/>
<path d="M2114 1925 c11 -8 22 -12 25 -9 6 6 -19 24 -34 24 -5 -1 -1 -7 9 -15z"/>
<path d="M2085 1910 c-4 -6 -11 -8 -16 -5 -15 10 -10 -2 8 -16 11 -10 14 -10
9 -1 -5 8 0 12 14 12 12 0 18 5 15 10 -8 13 -22 13 -30 0z"/>
</g>
</svg>
